<svg width="36" height="36" viewBox="0 0 36 36" fill="none" xmlns="http://www.w3.org/2000/svg">
<rect width="36" height="36" rx="3" fill="#FF5943"/>
<path fill-rule="evenodd" clip-rule="evenodd" d="M15 18C15 18 16.99 19 18 19C18.99 19 21 18 21 18C24 18 25 22 25 22V25C25 25 25 27 23 27H13C11 27 11 25 11 25V22C11 22 12 18 15 18ZM20.2685 20L21 20.7284L18.7204 22.9977L21 25.2693L20.2685 25.9969L17.9976 23.7242L15.7145 25.9969L15 25.2693L17.264 22.9985L15 20.7284L15.7145 20L17.9976 22.272L20.2685 20ZM18 17C20.2091 17 22 15.2091 22 13C22 10.7909 20.2091 9 18 9C15.7909 9 14 10.7909 14 13C14 15.2091 15.7909 17 18 17Z" fill="white"/>
</svg>
